<svg version="1.1" id="Layer_1" xmlns="http://www.w3.org/2000/svg" xmlns:xlink="http://www.w3.org/1999/xlink" x="0px" y="0px"
	 width="100%" viewBox="0 0 746 367" enable-background="new 0 0 746 367" xml:space="preserve">
<path fill="#055c9d" opacity="1.000000" stroke="none"
	d="
M162.576538,343.635559
	C131.783981,352.391571 102.098213,351.688110 73.358276,337.181580
	C42.698891,321.706238 25.083065,296.591553 19.177256,263.227905
	C14.445447,236.496521 17.784811,210.426315 28.805361,185.606644
	C40.475197,159.324692 59.131741,139.242615 84.590950,125.753067
	C152.624817,89.705383 224.360092,63.488136 299.532959,47.204754
	C336.065979,39.291245 372.991913,32.869606 409.997528,27.571877
	C435.142609,23.972109 460.714325,22.401964 486.132996,21.921843
	C513.541687,21.404133 541.088806,22.056770 568.405151,24.286190
	C607.576599,27.483150 645.787109,35.737736 680.965088,54.324028
	C702.338867,65.616859 720.400696,80.618027 729.895630,103.683990
	C740.605530,129.701569 738.920898,155.774704 728.594910,181.458496
	C715.608948,213.758652 693.458923,238.421265 664.335571,257.075317
	C663.024353,257.915161 661.532104,258.472260 658.978882,259.721436
	C666.118225,250.701263 672.699341,243.014847 678.583740,234.827682
	C693.045166,214.706970 702.871704,192.807709 703.006531,167.432556
	C703.199158,131.175735 688.040283,103.277832 657.500732,83.761398
	C630.814209,66.707352 601.095215,57.802948 570.338196,52.065498
	C529.588928,44.464088 488.385071,42.068058 447.017975,43.454147
	C382.963348,45.600426 319.778778,54.484661 257.422729,69.290649
	C213.668076,79.679893 170.776001,92.860001 128.773834,108.930717
	C127.097328,109.572166 125.467697,110.336151 123.987534,111.676704
	C129.267624,111.120178 134.536255,110.339760 139.830948,110.069008
	C145.313675,109.788643 150.832169,109.781906 156.316681,110.041946
	C172.396423,110.804329 187.980453,113.912498 202.884674,120.203300
	C206.871155,121.885925 208.226883,123.997482 207.305939,128.621506
	C202.920746,150.639175 198.981873,172.745636 194.852081,194.814499
	C194.616348,196.074219 194.096207,197.280746 193.827896,198.132660
	C185.101974,194.842545 176.768829,190.815109 167.979950,188.578873
	C151.807739,184.464020 135.595581,183.895325 120.796875,193.660004
	C100.608719,206.980804 95.732574,230.354431 102.626030,250.088333
	C107.746979,264.748077 119.517075,271.735199 134.846359,272.857208
	C148.347198,273.845306 160.919571,270.492126 173.004684,264.800140
	C175.828491,263.470184 178.659439,262.155396 182.674423,260.278625
	C181.330505,267.666260 180.210480,273.960541 179.037598,280.244904
	C175.467468,299.374115 171.743164,318.476227 168.412903,337.646912
	C167.784882,341.262115 166.299957,342.962463 162.576538,343.635559
z"/>
<path fill="#055c9d" opacity="1.000000" stroke="none"
	d="
M420.093262,145.902664
	C442.613953,168.952713 449.910492,196.749573 447.454468,227.739716
	C445.902496,247.322723 440.114380,265.651459 429.494995,282.162048
	C412.039642,309.300903 386.780273,325.931915 356.196594,334.997864
	C338.836853,340.143890 321.037781,342.235382 302.979736,342.371582
	C273.332550,342.595245 243.685135,342.791748 214.037827,342.998291
	C212.899002,343.006226 211.760086,342.999298 209.269806,342.999298
	C223.266144,266.818695 237.155991,191.217728 251.100418,115.319580
	C252.436249,115.209991 253.712769,115.001801 254.986847,115.015930
	C283.296021,115.330025 311.623749,115.146599 339.907837,116.168808
	C362.291412,116.977768 384.470734,119.970215 403.684143,133.125366
	C409.297028,136.968445 414.467621,141.457504 420.093262,145.902664
M321.716156,185.069595
	C321.498352,185.690002 321.194946,186.294357 321.075104,186.933136
	C317.029541,208.493958 312.963165,230.051010 308.991516,251.625488
	C307.593811,259.218140 306.434357,266.854614 305.051819,275.157562
	C320.638733,274.197998 334.676147,271.956787 346.476135,262.144409
	C359.909973,250.973389 363.883728,236.398987 363.814819,219.478729
	C363.720367,196.291245 341.897125,182.177124 321.716156,185.069595
z"/>
<path fill="#055c9d" opacity="1.000000" stroke="none"
	d="
M656.033447,245.030975
	C660.322327,277.764862 664.578247,310.056946 668.919983,343.000122
	C667.118103,343.000122 665.522339,343.003052 663.926575,342.999664
	C641.597107,342.952362 619.267578,342.906250 596.938110,342.851074
	C595.607056,342.847778 594.275391,342.718506 592.945190,342.736450
	C588.287781,342.799286 586.828796,340.590332 586.873291,335.947449
	C586.944580,328.507294 586.193420,321.059235 585.756531,313.000122
	C580.675964,313.000122 576.068298,313.000122 571.460693,313.000122
	C559.628723,313.000153 547.794983,313.114624 535.966003,312.925903
	C532.698059,312.873749 530.979187,313.638245 529.761658,316.958069
	C527.015259,324.446747 523.811157,331.779175 520.484863,339.033783
	C519.825806,340.471313 517.791504,342.222687 516.380920,342.231903
	C487.905426,342.418640 459.428406,342.371735 430.390839,342.371735
	C431.484802,340.218231 432.625122,337.924194 433.807892,335.652313
	C470.538147,265.101105 507.314453,194.573868 543.922913,123.959564
	C546.722778,118.558784 549.668945,115.046532 556.443237,115.110855
	C583.753906,115.370148 611.068481,115.218292 639.229431,115.218292
	C644.814087,158.297882 650.407349,201.443542 656.033447,245.030975
M581.209351,221.090515
	C580.967224,212.619965 580.725159,204.149399 580.483032,195.678848
	C580.227966,195.730728 579.972900,195.782623 579.717896,195.834503
	C571.372375,216.500320 563.026855,237.166138 554.366028,258.612701
	C563.628845,258.612701 572.052002,258.679840 580.469543,258.494598
	C581.201294,258.478516 582.533325,256.783752 582.511841,255.894699
	C582.239014,244.599106 581.769165,233.308243 581.209351,221.090515
z"/>
</svg>
