<?xml version="1.0" encoding="UTF-8" standalone="no"?>
<svg
   width="2732"
   height="2732"
   xml:space="preserve"
   enable-background="new 0 0 864 259"
   version="1.1"
   id="svg1"
   sodipodi:docname="splash.svg"
   inkscape:export-filename="splash.png"
   inkscape:export-xdpi="96"
   inkscape:export-ydpi="96"
   inkscape:version="1.3 (0e150ed, 2023-07-21)"
   xmlns:inkscape="http://www.inkscape.org/namespaces/inkscape"
   xmlns:sodipodi="http://sodipodi.sourceforge.net/DTD/sodipodi-0.dtd"
   xmlns="http://www.w3.org/2000/svg"
   xmlns:svg="http://www.w3.org/2000/svg"><defs
   id="defs1" /><sodipodi:namedview
   id="namedview1"
   pagecolor="#ffffff"
   bordercolor="#000000"
   borderopacity="0.25"
   inkscape:showpageshadow="2"
   inkscape:pageopacity="0.0"
   inkscape:pagecheckerboard="0"
   inkscape:deskcolor="#d1d1d1"
   inkscape:export-bgcolor="#4aa17fff"
   inkscape:zoom="0.23572474"
   inkscape:cx="1366"
   inkscape:cy="1366"
   inkscape:window-width="1504"
   inkscape:window-height="1027"
   inkscape:window-x="0"
   inkscape:window-y="25"
   inkscape:window-maximized="0"
   inkscape:current-layer="svg1" />&#10; <g
   id="g1">&#10;  <title
   id="title1">Layer 1</title>&#10;  <path
   stroke="null"
   id="svg_2"
   d="m1338.32655,1429.95604c0,21.21603 0,42.43204 0,63.97835c-9.13424,0 -18.28495,0 -27.74018,0c0,-38.89587 0,-77.5564 0,-116.85175c1.59446,-0.0769 3.22641,-0.22063 4.85866,-0.22379l38.04186,0.02245c14.19981,50.65612 18.84476,66.73501 23.48966,82.8139c0.32913,0.02214 0.65825,0.04431 0.98731,0.06646c7.92505,-27.49275 15.8501,-54.98548 23.83835,-82.69731c13.96421,0 27.78881,0 41.98488,0c0,38.82263 0,77.64636 0,116.83563c-9.40597,0 -18.88168,0 -28.22764,0c0,-27.69659 0,-55.24997 0,-84.00335c-8.06472,28.65144 -15.84469,56.29115 -23.67611,84.11381c-10.09224,0 -19.99716,0 -30.29511,0c-22.32192,-79.0017 -22.81715,-80.2943 -23.1408,-81.58691l-0.12087,17.5325z"
   fill="#042647" />&#10;  <path
   stroke="null"
   id="svg_3"
   d="m1239.11111,1495.74529c-19.31953,-0.64971 -36.15824,-6.28468 -45.67011,-23.53732c-12.93721,-23.46551 -13.28046,-48.13226 -0.27719,-71.65505c9.51992,-17.22147 26.57773,-23.42929 45.34037,-24.92997c15.38639,-1.23064 30.37108,1.01345 45.46573,7.03105c-3.28509,8.22109 -6.52218,16.32207 -9.51634,23.81505c-8.10839,-1.64043 -15.67432,-3.71875 -23.37801,-4.6207c-18.57235,-2.1745 -30.1975,6.23398 -32.97753,24.72052c-1.16807,7.76758 -0.73112,16.18455 0.94021,23.87974c2.82235,12.9949 12.30274,19.41634 26.01283,19.31782c3.71387,-0.02666 7.42339,-0.66327 11.34368,-1.03998c0,-6.37931 0,-12.29397 0,-18.66365c-6.76153,0 -13.36849,0 -20.26109,0c0,-8.23685 0,-16.02765 0,-24.14205c16.5079,0 49.86071,-0.04108 49.90094,0c0.04023,0.04108 0.3349,40.22635 0.47559,59.25498c0.02214,3.00004 -1.00908,4.01062 -3.81229,4.8097c-14.10207,4.01984 -28.42443,6.10504 -43.58679,5.75985z"
   fill="#022446" />&#10;  <path
   stroke="null"
   id="svg_4"
   d="m1561.23427,1459.64626c-3.31377,-20.28584 -3.64408,-40.04559 2.98892,-59.32746c5.42472,-15.76972 17.09112,-24.06751 34.11582,-24.88952c17.09174,-0.82524 30.88612,5.03687 38.13621,21.23144c3.29668,7.36381 5.35252,15.57301 6.37595,23.60206c1.91202,15.0015 1.42977,30.04565 -2.21437,44.91452c-6.65707,27.16215 -28.77329,34.13447 -50.96302,29.24398c-12.78332,-2.81734 -20.54952,-11.70454 -25.14415,-23.54135c-1.35613,-3.49379 -2.17674,-7.19547 -3.29536,-11.23366m30.11629,-42.67473c0.23348,13.66874 0.09028,27.91889 0.84743,41.55857c0.42664,7.68631 4.2525,11.70894 9.058,11.84365c4.93568,0.13836 8.88715,-3.53761 9.31699,-11.46869c0.79346,-14.64262 0.59786,-28.22608 0.49092,-42.90242c-0.17453,-9.42695 -2.98858,-14.89569 -9.76513,-14.86756c-7.54456,0.08953 -9.90326,5.65068 -9.94822,15.83645z"
   fill="#022446" />&#10;  <path
   stroke="null"
   id="svg_6"
   d="m1131.96486,1375.74523c16.1985,-0.0489 25.89325,2.96041 38.44535,8.25985c-3.20937,8.17288 -6.35594,16.18585 -9.16029,23.32734c-9.15473,-2.1059 -17.84957,-4.10946 -26.54792,-6.09801c-0.49704,-0.11363 -0.63991,0.24972 -1.53426,-0.14878c-7.3622,-0.2341 -11.32811,1.76954 -12.2952,6.01881c-1.38533,6.0867 3.40931,8.05222 7.45156,10.1412c6.97937,3.60686 14.16104,6.81976 21.1892,10.33525c19.76346,9.88572 24.90055,25.9607 18.28106,44.87802c-4.54568,12.99088 -15.48661,19.47907 -28.24844,22.09889c-16.21293,3.32828 -35.93915,1.34429 -51.49755,-5.14113c0.09863,-0.07375 -0.0164,-1.33034 0.06108,-4.21283c0.21116,-7.85623 0.07259,-15.72186 0.07259,-24.12159c5.42467,2.0096 8.56261,3.37957 15.50761,5.60402c6.945,2.22445 15.79044,4.39578 20.48039,4.32519c4.68996,-0.07059 5.16036,-0.12817 8.7418,-1.73983c3.58144,-1.61165 7.82718,-9.50854 2.25666,-13.68159c-3.65231,-2.73609 -7.9472,-4.6389 -12.02971,-6.77044c-5.90149,-3.08127 -12.12448,-5.62346 -17.76136,-9.11951c-13.36698,-8.29034 -18.84282,-21.29947 -15.58773,-37.10786c2.94362,-14.29578 12.72425,-21.48945 26.45031,-25.14225c4.94807,-1.21303 6.71357,-1.79183 15.72484,-1.70476z"
   fill="#022446" />&#10;  <path
   stroke="null"
   id="svg_8"
   d="m1504.16691,1376.76736c4.36609,-0.2317 23.33911,0.08883 28.03119,0.08883c0,39.24229 0,78.06794 0,117.14726c-10.50479,0 -20.89354,0 -31.6055,0c0,-27.13855 0,-54.11408 0,-81.47667c-6.90645,5.94298 -13.44018,11.56526 -20.37101,17.52925c-5.5681,-6.77992 -10.96983,-13.35723 -16.61094,-20.22608l40.55627,-33.06259z"
   fill="#022446" />&#10;  <path
   stroke="null"
   id="svg_5"
   d="m1324.08431,1039.09978c83.9703,-27.00779 147.1766,28.36944 162.00739,81.1447c-12.83694,-1.09827 -25.50206,-2.40517 -38.19869,-3.22283c-28.74002,-1.85078 -56.95872,0.87136 -84.0103,11.3262c-41.1067,15.88685 -66.58878,46.62358 -81.49273,87.07446c-3.50351,9.50891 -6.36009,19.25615 -9.56954,29.06269c-61.99544,-65.75016 -34.52468,-176.26009 51.26387,-205.38521m20.65439,28.95585c-81.30784,14.56566 -102.51413,101.5439 -74.95484,145.9412c9.69009,-35.32949 25.08815,-66.5083 53.44582,-90.14712c28.40636,-23.6794 61.86547,-33.63846 99.81139,-37.05603c-24.52568,-17.40372 -49.69851,-22.50874 -78.30237,-18.73805z"
   fill="#1465B0" />&#10;  <path
   stroke="null"
   id="svg_7"
   d="m1283.21268,1254.57922c4.00587,-21.9127 11.10134,-43.8175 22.17129,-62.66048c17.76839,-30.24493 45.15167,-45.25078 79.31352,-49.20253c1.01743,-0.11768 2.03346,-0.24746 3.67143,-0.44746c0.35238,-2.32186 0.71953,-4.741 1.28172,-8.44527c12.29371,6.95289 24.19979,13.68657 37.37015,21.1353c-11.90878,9.34939 -23.01322,18.06726 -35.34977,27.75247c-0.54641,-5.26762 -0.92826,-8.9488 -1.3858,-13.3598c-34.55596,4.03569 -62.55134,18.08876 -79.7417,49.18246c-5.04321,9.12207 -8.0854,19.35266 -12.01354,29.08776l-0.85314,2.21424c58.6123,33.00093 139.09724,2.52372 150.17662,-63.50609c2.90289,-17.30031 1.61335,-34.16904 -3.93116,-52.07554c16.43215,1.69745 31.87211,3.29239 47.02095,4.85726c9.59836,51.72952 -18.21573,107.51293 -66.08564,131.54713c-48.13238,24.16606 -94.22001,19.3448 -137.50433,-12.56027l-4.1406,-3.51918z"
   fill="#E4773C" />&#10; </g>&#10;&#10;</svg>
