<svg width="1024" height="1024" xmlns="http://www.w3.org/2000/svg" xml:space="preserve" enable-background="new 0 0 864 259" version="1.1">
 <g>
  <title>Layer 1</title>
  <path stroke="null" id="svg_5" d="m379.19931,132.22191c266.04161,-85.56829 466.29702,89.88238 513.28514,257.0893c-40.67106,-3.47964 -80.79771,-7.62026 -121.02422,-10.21084c-91.0565,-5.8638 -180.46129,2.76073 -266.16835,35.8846c-130.23764,50.33402 -210.97206,147.71667 -258.19196,275.87647c-11.10009,30.12692 -20.15055,61.00892 -30.31901,92.0788c-196.41906,-208.31505 -109.38392,-558.44172 162.4184,-650.71834m65.43895,91.74032c-257.60619,46.14813 -324.79369,321.71975 -237.47808,462.3829c30.70095,-111.93378 79.48634,-210.71706 169.33143,-285.61152c89.99935,-75.02302 196.00726,-106.57612 316.23065,-117.40396c-77.70427,-55.13989 -157.45891,-71.31404 -248.08401,-59.36742z" fill="#1465B0"/>
  <path stroke="null" id="svg_7" d="m249.70643,814.92158c12.69174,-69.42561 35.17219,-138.82619 70.24492,-198.52608c56.29528,-95.82449 143.05324,-143.36723 251.28762,-155.8875c3.22351,-0.37285 6.44257,-0.78402 11.63214,-1.41768c1.11644,-7.35632 2.27966,-15.02081 4.06085,-26.75701c38.94994,22.02872 76.67175,43.36292 118.39918,66.9626c-37.73036,29.62151 -72.91238,57.24217 -111.99806,87.92767c-1.73119,-16.68929 -2.94099,-28.35232 -4.39059,-42.32762c-109.48305,12.78622 -198.18032,57.3103 -252.64421,155.82391c-15.9783,28.90128 -25.61682,61.3147 -38.0623,92.15823l-2.703,7.01534c185.70032,104.55625 440.69932,7.99585 475.80191,-201.20523c9.19719,-54.81225 5.11155,-108.25717 -12.45501,-164.99001c52.06169,5.37799 100.97984,10.43123 148.97564,15.38916c30.41032,163.89371 -57.71258,340.63131 -209.37797,416.77845c-152.49697,76.5649 -298.51559,61.28977 -435.65253,-39.79447l-13.11859,-11.14975z" fill="#E4773C"/>
 </g>

</svg>