<?xml version="1.0" encoding="UTF-8"?>
<svg width="700pt" height="700pt" version="1.1" viewBox="0 0 700 700" xmlns="http://www.w3.org/2000/svg">

 <g>
  <title>Layer 1</title>
  <path stroke="null" id="svg_1" d="m219.99888,328.33212c0,11.96507 -9.70158,21.66665 -21.66665,21.66665l-43.3333,0c-11.96507,0 -21.66665,-9.70158 -21.66665,-21.66665s9.70158,-21.66665 21.66665,-21.66665l43.3333,0c11.96507,0 21.66665,9.70158 21.66665,21.66665zm108.33325,21.66665l43.3333,0c11.97472,0 21.66665,-9.70158 21.66665,-21.66665s-9.69193,-21.66665 -21.66665,-21.66665l-43.3333,0c-11.96507,0 -21.66665,9.70158 -21.66665,21.66665s9.70158,21.66665 21.66665,21.66665zm-129.9999,64.99995l-43.3333,0c-11.96507,0 -21.66665,9.70158 -21.66665,21.66665s9.70158,21.66665 21.66665,21.66665l43.3333,0c11.96507,0 21.66665,-9.70158 21.66665,-21.66665s-9.70158,-21.66665 -21.66665,-21.66665zm0,108.33325l-43.3333,0c-11.96507,0 -21.66665,9.70158 -21.66665,21.66665s9.70158,21.66665 21.66665,21.66665l43.3333,0c11.96507,0 21.66665,-9.70158 21.66665,-21.66665s-9.70158,-21.66665 -21.66665,-21.66665zm194.99986,-86.6666c0,-11.96507 -9.69193,-21.66665 -21.66665,-21.66665l-43.3333,0c-11.96507,0 -21.66665,9.70158 -21.66665,21.66665s9.70158,21.66665 21.66665,21.66665l43.3333,0c11.97472,0 21.66665,-9.70158 21.66665,-21.66665zm108.33325,-86.6666c11.97472,0 21.66665,-9.70158 21.66665,-21.66665s-9.69193,-21.66665 -21.66665,-21.66665l-21.66665,0c-11.97472,0 -21.66665,9.70158 -21.66665,21.66665s9.69193,21.66665 21.66665,21.66665l21.66665,0zm173.33321,-216.66651l0,180.69987c0,11.96507 -9.69193,21.66665 -21.66665,21.66665s-21.66665,-9.70158 -21.66665,-21.66665l0,-72.36538l-563.33292,0l0,368.33306c0,11.94563 9.72102,21.66665 21.66665,21.66665l188.277,0c11.96507,0 21.66665,9.70158 21.66665,21.66665s-9.70158,21.66665 -21.66665,21.66665l-188.277,0c-35.84159,0 -64.99995,-29.15836 -64.99995,-64.99995l0,-476.66632c0,-35.84159 29.15836,-64.99995 64.99995,-64.99995l64.99995,0l0,-21.66665c0,-11.96507 9.70158,-21.66665 21.66665,-21.66665s21.66665,9.70158 21.66665,21.66665l0,21.66665l303.33311,0l0,-21.66665c0,-11.96507 9.69193,-21.66665 21.66665,-21.66665s21.66665,9.70158 21.66665,21.66665l0,21.66665l64.99995,0c35.84159,0 64.99995,29.15836 64.99995,64.99995l0,-0.00124zm-43.3333,64.99995l0,-64.99995c0,-11.94563 -9.71136,-21.66665 -21.66665,-21.66665l-64.99995,0c0,11.96507 -9.69193,21.66665 -21.66665,21.66665s-21.66665,-9.70158 -21.66665,-21.66665l-303.33311,0c0,11.96507 -9.70158,21.66665 -21.66665,21.66665s-21.66665,-9.70158 -21.66665,-21.66665l-64.99995,0c-11.94563,0 -21.66665,9.72102 -21.66665,21.66665l0,64.99995l563.33292,0zm36.98807,223.01793c8.46349,8.46349 8.46349,22.17427 0,30.63788l-173.33321,173.33321c-2.0748,2.0748 -4.55099,3.71428 -7.27863,4.80244l-108.33325,43.3333c-2.60681,1.03497 -5.33445,1.54279 -8.04278,1.54279c-5.63915,0 -11.18148,-2.20047 -15.32142,-6.35006c-6.12275,-6.12275 -8.01864,-15.31646 -4.80244,-23.36903l43.3333,-108.33325c1.10267,-2.71799 2.72765,-5.19418 4.80244,-7.26898l173.33321,-173.33321c8.46349,-8.46349 22.17427,-8.46349 30.63788,0l65.0049,65.0049zm-258.09314,193.09319l30.89417,-12.3568l-18.53799,-18.53799l-12.35618,30.89479zm212.13508,-177.77796l-34.36207,-34.36207l-142.69037,142.69037l34.36207,34.36207l142.69037,-142.69037z"/>
 </g>
</svg>
