<svg
  width="804.0000000000002"
  height="219"
  xmlns="http://www.w3.org/2000/svg"
  xml:space="preserve"
  enable-background="new 0 0 864 259"
  version="1.1"
>
 <g>
  <title>Layer 1</title>
  <path
      id="svg_2"
      d="m466.85367,103.91815c0,20.60885 0,41.21769 0,62.14737c-8.87283,0 -17.76166,0 -26.94629,0c0,-37.78272 0,-75.33683 0,-113.5076c1.54883,-0.0747 3.13407,-0.21432 4.71961,-0.21739l36.95315,0.02181c13.79343,49.2064 18.30545,64.82514 22.81741,80.44387c0.31971,0.02151 0.63941,0.04304 0.95905,0.06456c7.69824,-26.70594 15.39649,-53.41186 23.15613,-80.33061c13.56457,0 26.99353,0 40.78332,0c0,37.71157 0,75.42422 0,113.49194c-9.13678,0 -18.34131,0 -27.4198,0c0,-26.90395 0,-53.66878 0,-81.59928c-7.83392,27.83147 -15.39123,54.68017 -22.99853,81.70658c-9.80341,0 -19.42487,0 -29.4281,0c-21.68309,-76.74077 -22.16415,-77.99638 -22.47854,-79.25199l-0.11741,17.03074z"
      fill="#777"
    />
  <path
      id="svg_3"
      d="m370.47766,167.8246c-18.76663,-0.63112 -35.12344,-6.10482 -44.36309,-22.86371c-12.56696,-22.79396 -12.90039,-46.75477 -0.26926,-69.60437c9.24747,-16.72861 25.81711,-22.75877 44.04278,-24.2165c14.94605,-1.19542 29.5019,0.98445 44.16456,6.82983c-3.19107,7.98581 -6.33552,15.85495 -9.24399,23.13349c-7.87634,-1.59348 -15.22574,-3.61232 -22.70896,-4.48846c-18.04083,-2.11227 -29.33328,6.05557 -32.03375,24.01305c-1.13464,7.54528 -0.7102,15.72137 0.9133,23.19633c2.74158,12.623 11.95065,18.86067 25.26837,18.76497c3.60758,-0.0259 7.21094,-0.64429 11.01904,-1.01022c0,-6.19674 0,-11.94213 0,-18.12952c-6.56802,0 -12.9859,0 -19.68124,0c0,-8.00112 0,-15.56896 0,-23.45113c16.03546,0 48.43376,-0.0399 48.47284,0c0.03908,0.0399 0.32532,39.07512 0.46198,57.55918c0.02151,2.91418 -0.9802,3.89584 -3.70319,4.67205c-13.69849,3.9048 -27.61096,5.93032 -42.33939,5.59501z"
      fill="#777"
    />
  <path
      id="svg_4"
      d="m683.38205,132.75868c-3.21893,-19.70528 -3.53979,-38.89953 2.90338,-57.62958c5.26947,-15.31841 16.60199,-23.37873 33.13947,-24.17721c16.6026,-0.80162 30.0022,4.89272 37.0448,20.62382c3.20233,7.15307 5.19934,15.12733 6.19348,22.9266c1.8573,14.57218 1.38885,29.18578 -2.151,43.62912c-6.46655,26.3848 -27.94983,33.15758 -49.50452,28.40705c-12.41748,-2.73671 -19.96142,-11.36957 -24.42456,-22.86763c-1.31732,-3.3938 -2.11444,-6.98954 -3.20105,-10.91217m29.2544,-41.45343c0.2268,13.27756 0.0877,27.11988 0.82318,40.36921c0.41443,7.46634 4.1308,11.37384 8.79877,11.5047c4.79443,0.1344 8.63281,-3.43637 9.05035,-11.14047c0.77075,-14.22357 0.58075,-27.41828 0.47687,-41.6746c-0.16953,-9.15716 -2.90305,-14.4694 -9.48566,-14.44207c-7.32864,0.08697 -9.61984,5.48897 -9.66351,15.38323z"
      fill="#777"
    />
  <path
      id="svg_5"
      d="m95.30757,31.80216c54.42878,-17.5062 95.39853,18.38881 105.01171,52.59725c-8.32079,-0.71189 -16.5302,-1.55901 -24.76004,-2.08901c-18.62902,-1.19966 -36.92012,0.56481 -54.45471,7.34154c-26.64499,10.29771 -43.16224,30.22098 -52.82284,56.44087c-2.27094,6.16359 -4.12255,12.48166 -6.20289,18.83817c-40.18488,-42.61865 -22.37858,-114.25018 33.22877,-133.12882m13.38799,18.76892c-52.703,9.44133 -66.44872,65.81983 -48.58504,94.59775c6.28103,-22.90025 16.26191,-43.11007 34.64309,-58.43254c18.41274,-15.34877 40.10063,-21.80414 64.69683,-24.01938c-15.89732,-11.28093 -32.21412,-14.58996 -50.75488,-12.14583z"
      fill="#1465B0"
    />
  <path
      id="svg_6"
      d="m266.3978,51.25879c15.73492,-0.0475 25.15222,2.87569 37.34509,8.02346c-3.11752,7.93898 -6.17404,15.72263 -8.89813,22.65974c-8.89273,-2.04563 -17.33874,-3.99185 -25.78815,-5.92349c-0.48282,-0.11038 -0.6216,0.24257 -1.49035,-0.14452c-7.1515,-0.2274 -11.00391,1.7189 -11.94333,5.84656c-1.34568,5.91251 3.31174,7.82178 7.23831,9.85097c6.77963,3.50364 13.75577,6.62459 20.58279,10.03947c19.19785,9.6028 24.18793,25.21774 17.75788,43.59367c-4.41559,12.6191 -15.0434,18.9216 -27.44,21.46645c-15.74894,3.23303 -34.91062,1.30582 -50.02375,-4.994c0.09581,-0.07164 -0.01593,-1.29227 0.05933,-4.09226c0.20512,-7.63139 0.07051,-15.27192 0.07051,-23.43126c5.26942,1.95209 8.31756,3.28285 15.0638,5.44364c6.74624,2.16079 15.33854,4.26998 19.89427,4.20141c4.55574,-0.06857 5.01268,-0.1245 8.49162,-1.69004c3.47894,-1.56553 7.60318,-9.23642 2.19208,-13.29004c-3.54779,-2.65779 -7.71976,-4.50614 -11.68543,-6.57668c-5.7326,-2.99309 -11.77749,-5.46252 -17.25305,-8.85852c-12.98443,-8.05308 -18.30356,-20.68991 -15.14163,-36.04588c2.85938,-13.88665 12.3601,-20.87445 25.69333,-24.42271c4.80646,-1.17831 6.52144,-1.74055 15.27481,-1.65597z"
      fill="#777"
    />
  <path
      id="svg_7"
      d="m68.81495,171.47396c2.59657,-14.20361 7.19579,-28.4021 14.37123,-40.61595c11.51731,-19.60449 29.2669,-29.33114 51.4103,-31.89263c0.65949,-0.07628 1.31807,-0.1604 2.37979,-0.29004c0.22841,-1.50501 0.46639,-3.07307 0.8308,-5.47415c7.96867,4.5068 15.68608,8.87151 24.22299,13.69971c-7.71916,6.06019 -14.91696,11.71103 -22.9134,17.9889c-0.35418,-3.41442 -0.60169,-5.80053 -0.89826,-8.6597c-22.39886,2.6159 -40.54521,11.72497 -51.68784,31.87962c-3.26896,5.91284 -5.24088,12.54422 -7.78707,18.85442l-0.553,1.43525c37.99196,21.3909 90.16156,1.63585 97.34311,-41.16407c1.88163,-11.2139 1.04576,-22.14806 -2.54814,-33.75489c10.65117,1.10027 20.65921,2.1341 30.47855,3.14843c6.22157,33.5306 -11.80727,69.6889 -42.83611,85.26765c-31.19897,15.66422 -61.07255,12.53912 -89.12905,-8.14145l-2.6839,-2.2811z"
      fill="#E4773C"
    />
  <path
      id="svg_8"
      d="m627.94788,52.25167c4.24114,-0.22507 22.67117,0.08629 27.22897,0.08629c0,38.11922 0,75.83373 0,113.79465c-10.20416,0 -20.29559,0 -30.70099,0c0,-26.36188 0,-52.5654 0,-79.14491c-6.7088,5.7729 -13.05554,11.23428 -19.78802,17.02758c-5.40875,-6.58589 -10.65589,-12.97496 -16.13556,-19.64723l39.3956,-32.11638z"
      fill="#777"
    />
 </g>

</svg>
